HIERARCHY
ROOT Hips
{
  OFFSET 46.6258 85.6497 -6.46669
  CHANNELS 6 Xposition Yposition Zposition Zrotation Xrotation Yrotation
  JOINT spine
  {
    OFFSET 0 6.84637 0.3937
    CHANNELS 3 Zrotation Xrotation Yrotation
    JOINT spine1
    {
      OFFSET 0 9.49621 0
      CHANNELS 3 Zrotation Xrotation Yrotation
      JOINT spine2
      {
        OFFSET 0 9.09909 0
        CHANNELS 3 Zrotation Xrotation Yrotation
        JOINT Neck
        {
          OFFSET 0 23.3612 1.11378
          CHANNELS 3 Zrotation Xrotation Yrotation
          JOINT Head
          {
            OFFSET 0 7.05802 0
            CHANNELS 3 Zrotation Xrotation Yrotation
            End Site
            {
              OFFSET 0 17.0844 -5.63419
            }
          }
        }
        JOINT RightShoulder
        {
          OFFSET -3.83136 9.82631 -0.533491
          CHANNELS 3 Zrotation Xrotation Yrotation
          JOINT RightArm
          {
            OFFSET 0 12.8881 0
            CHANNELS 3 Zrotation Xrotation Yrotation
            JOINT RightArmRoll
            {
              OFFSET 0 6.50617 0
              CHANNELS 3 Zrotation Xrotation Yrotation
              JOINT RightForeArm
              {
                OFFSET 0 18.9501 0
                CHANNELS 3 Zrotation Xrotation Yrotation
                JOINT RightForeArmRoll
                {
                  OFFSET 0 7.30092 0
                  CHANNELS 3 Zrotation Xrotation Yrotation
                  JOINT RightHand
                  {
                    OFFSET 0 14.6514 0
                    CHANNELS 3 Zrotation Xrotation Yrotation
                    End Site
                    {
                      OFFSET 0 0 0
                    }
                  }
                }
              }
            }
          }
        }
        JOINT LeftShoulder
        {
          OFFSET 3.83136 9.82631 -0.533491
          CHANNELS 3 Zrotation Xrotation Yrotation
          JOINT LeftArm
          {
            OFFSET 0 12.8881 0
            CHANNELS 3 Zrotation Xrotation Yrotation
            JOINT LeftArmRoll
            {
              OFFSET 0 6.50617 0
              CHANNELS 3 Zrotation Xrotation Yrotation
              JOINT LeftForeArm
              {
                OFFSET 0 18.9501 0
                CHANNELS 3 Zrotation Xrotation Yrotation
                JOINT LeftForeArmRoll
                {
                  OFFSET 0 7.30092 0
                  CHANNELS 3 Zrotation Xrotation Yrotation
                  JOINT LeftHand
                  {
                    OFFSET 0 14.6514 0
                    CHANNELS 3 Zrotation Xrotation Yrotation
                    End Site
                    {
                      OFFSET 0 0 0
                    }
                  }
                }
              }
            }
          }
        }
      }
    }
  }
  JOINT RightUpLeg
  {
    OFFSET -6.06837 -1.11278 -0.933477
    CHANNELS 3 Zrotation Xrotation Yrotation
    JOINT RightUpLegRoll
    {
      OFFSET 0 17.1796 0
      CHANNELS 3 Zrotation Xrotation Yrotation
      JOINT RightLeg
      {
        OFFSET 0 -21.2743 0
        CHANNELS 3 Zrotation Xrotation Yrotation
        JOINT RightLegRoll
        {
          OFFSET 0 21.3439 0
          CHANNELS 3 Zrotation Xrotation Yrotation
          JOINT RightFoot
          {
            OFFSET 0 17.7652 0
            CHANNELS 3 Zrotation Xrotation Yrotation
            JOINT RightToeBase
            {
              OFFSET 0 14.8508 0
              CHANNELS 3 Zrotation Xrotation Yrotation
              End Site
              {
                OFFSET 0.0062947 7.19213 -0.829005
              }
            }
          }
        }
      }
    }
  }
  JOINT LeftUpLeg
  {
    OFFSET 6.06837 -1.11278 -0.933477
    CHANNELS 3 Zrotation Xrotation Yrotation
    JOINT LeftUpLegRoll
    {
      OFFSET 0 17.1797 0
      CHANNELS 3 Zrotation Xrotation Yrotation
      JOINT LeftLeg
      {
        OFFSET 0 21.2742 0
        CHANNELS 3 Zrotation Xrotation Yrotation
        JOINT LeftLegRoll
        {
          OFFSET 0 21.5412 0
          CHANNELS 3 Zrotation Xrotation Yrotation
          JOINT LeftFoot
          {
            OFFSET 0 17.5679 0
            CHANNELS 3 Zrotation Xrotation Yrotation
            JOINT LeftToeBase
            {
              OFFSET 0 14.8508 0
              CHANNELS 3 Zrotation Xrotation Yrotation
              End Site
              {
                OFFSET -0.0282102 7.19213 -0.829005
              }
            }
          }
        }
      }
    }
  }
}
MOTION
Frames: 12
Frame Time: 0.00208333
53.2472 86.5814 7.93647 0.632955 0.986734 -0.781507 1.39255 -2.18663 1.1127 2.82893 -0.343578 2.09061 2.80456 1.29988 2.04369 -15.0021 7.23761 -1.2043 12.2154 8.95574 -4.90483 53.8066 -9.80882 -6.06506 91.1783 12.0524 31.8761 -6.97751e-007 3.58896e-007 5.62021e-006 9.81384 4.52826 -0.941228 -5.22453e-006 6.41446e-007 -3.00521 8.02898 -4.95148 0.697688 -74.5144 -8.47151 5.56659 -88.8789 23.2163 -32.5512 6.85624e-006 2.42813e-007 -2.23123e-006 -11.1024 4.38165 -0.268482 7.40546e-006 3.06376e-006 3 -8.02891 -4.95144 -0.69769 178.436 17.1857 -1.81897 180 7.01537e-015 178.882 176.243 24.3879 -179.73 2.07163e-006 1.72054e-006 0.605805 -23.2964 71.4442 23.0505 8.13142 25.2329 -3.48557 179.271 12.8876 2.03043 4.54188e-006 -4.6773e-006 -1.20851 -1.91686 -24.6516 0.23419 6.4928e-006 -4.97459e-006 -0.802055 28.8711 75.6003 -29.5173 -8.13262 25.2406 3.48583 
53.253 86.5741 7.94152 0.638564 0.989664 -0.777661 1.39264 -2.18668 1.11267 2.82818 -0.343827 2.09111 2.80379 1.29963 2.04421 -15.0191 7.19381 -1.20822 12.218 8.96822 -4.90881 53.8011 -9.80125 -6.05975 91.2155 12.1175 31.8085 -6.97751e-007 3.58896e-007 5.62021e-006 9.83947 4.56724 -0.946825 -5.22453e-006 6.41446e-007 -3.00521 8.02898 -4.95148 0.697688 -74.518 -8.47224 5.56699 -88.8837 23.2538 -32.5052 6.85624e-006 2.42813e-007 -2.23123e-006 -11.1279 4.42102 -0.260916 7.40546e-006 3.06376e-006 3 -8.02891 -4.95144 -0.69769 178.429 17.188 -1.81638 180 7.01537e-015 178.882 176.245 24.3895 -179.73 2.07163e-006 1.72054e-006 0.605805 -23.2981 71.4459 23.0554 8.13142 25.2329 -3.48557 179.262 12.8902 2.03907 4.54188e-006 -4.6773e-006 -1.20853 -1.91562 -24.6476 0.234477 6.4928e-006 -4.97459e-006 -0.802023 28.8644 75.5972 -29.5095 -8.13262 25.2406 3.48583 
53.2556 86.5808 7.94076 0.644176 0.992484 -0.773742 1.39276 -2.18674 1.11258 2.82744 -0.344124 2.09154 2.80305 1.29934 2.04465 -15.0362 7.14984 -1.21218 12.2204 8.98109 -4.91287 53.7954 -9.79355 -6.05433 91.2523 12.1825 31.7433 -6.97751e-007 3.58896e-007 5.62021e-006 9.86393 4.60844 -0.952763 -5.22453e-006 6.41446e-007 -3.00521 8.02898 -4.95148 0.697688 -74.5219 -8.47296 5.56739 -88.888 23.2917 -32.4602 6.85624e-006 2.42813e-007 -2.23123e-006 -11.1527 4.45989 -0.253477 7.40546e-006 3.06376e-006 3 -8.02891 -4.95144 -0.69769 178.422 17.19 -1.81378 180 7.01537e-015 178.882 176.248 24.3908 -179.731 2.07163e-006 1.72054e-006 0.605805 -23.2998 71.4475 23.0604 8.13142 25.2329 -3.48557 179.252 12.8927 2.04762 4.54188e-006 -4.6773e-006 -1.20853 -1.91444 -24.6436 0.234743 6.4928e-006 -4.97459e-006 -0.801975 28.8577 75.594 -29.5015 -8.13262 25.2406 3.48583 
53.2551 86.5791 7.93918 0.64979 0.995225 -0.76977 1.39289 -2.18682 1.11244 2.82672 -0.344454 2.09192 2.80232 1.29901 2.04504 -15.0534 7.10575 -1.21615 12.2227 8.99426 -4.91699 53.7896 -9.78573 -6.04883 91.2889 12.2474 31.6798 -6.97751e-007 3.58896e-007 5.62021e-006 9.88759 4.65119 -0.95894 -5.22453e-006 6.41446e-007 -3.00521 8.02898 -4.95148 0.697688 -74.526 -8.47367 5.56779 -88.892 23.3299 -32.4159 6.85624e-006 2.42813e-007 -2.23123e-006 -11.1772 4.49843 -0.246126 7.40546e-006 3.06376e-006 3 -8.02891 -4.95144 -0.69769 178.415 17.1919 -1.81117 180 7.01537e-015 178.882 176.251 24.392 -179.732 2.07163e-006 1.72054e-006 0.605805 -23.3015 71.4491 23.0654 8.13142 25.2329 -3.48557 179.243 12.8953 2.0561 4.54188e-006 -4.6773e-006 -1.20853 -1.9133 -24.6397 0.234996 6.4928e-006 -4.97459e-006 -0.801916 28.8509 75.5909 -29.4935 -8.13262 25.2406 3.48583 
53.2574 86.5835 7.9383 0.655405 0.997923 -0.765769 1.39304 -2.18691 1.11228 2.82602 -0.344805 2.09227 2.8016 1.29866 2.0454 -15.0707 7.06159 -1.22013 12.2249 9.00758 -4.92114 53.7838 -9.77786 -6.0433 91.3254 12.3123 31.6173 -6.97751e-007 3.58896e-007 5.62021e-006 9.9108 4.69482 -0.965255 -5.22453e-006 6.41446e-007 -3.00521 8.02898 -4.95148 0.697688 -74.5302 -8.47439 5.5682 -88.8957 23.3683 -32.372 6.85624e-006 2.42813e-007 -2.23123e-006 -11.2014 4.53677 -0.238826 7.40546e-006 3.06376e-006 3 -8.02891 -4.95144 -0.69769 178.407 17.1937 -1.80855 180 7.01537e-015 178.882 176.253 24.3932 -179.733 2.07163e-006 1.72054e-006 0.605805 -23.3032 71.4506 23.0704 8.13142 25.2329 -3.48557 179.233 12.8978 2.06454 4.54188e-006 -4.6773e-006 -1.20852 -1.9122 -24.6358 0.23524 6.4928e-006 -4.97459e-006 -0.80185 28.844 75.5877 -29.4853 -8.13262 25.2406 3.48583 
53.2568 86.5852 7.94718 0.66102 1.00061 -0.761761 1.39318 -2.187 1.11211 2.82531 -0.34516 2.09261 2.80088 1.29831 2.04575 -15.088 7.01741 -1.22412 12.2271 9.02095 -4.92531 53.7779 -9.76997 -6.03776 91.3621 12.3773 31.5551 -6.97751e-007 3.58896e-007 5.62021e-006 9.9339 4.73867 -0.971604 -5.22453e-006 6.41446e-007 -3.00521 8.02898 -4.95148 0.697688 -74.5345 -8.4751 5.5686 -88.8995 23.4068 -32.3281 6.85624e-006 2.42813e-007 -2.23123e-006 -11.2255 4.57507 -0.231538 7.40546e-006 3.06376e-006 3 -8.02891 -4.95144 -0.69769 178.4 17.1955 -1.80594 180 7.01537e-015 178.882 176.256 24.3943 -179.734 2.07163e-006 1.72054e-006 0.605805 -23.3049 71.4521 23.0754 8.13142 25.2329 -3.48557 179.224 12.9003 2.07298 4.54188e-006 -4.6773e-006 -1.20851 -1.9111 -24.6318 0.235483 6.4928e-006 -4.97459e-006 -0.801783 28.8372 75.5845 -29.4772 -8.13262 25.2406 3.48583 
53.2592 86.5863 7.94466 0.666633 1.00332 -0.757768 1.39332 -2.18708 1.11196 2.8246 -0.345505 2.09297 2.80015 1.29796 2.04612 -15.1053 6.97327 -1.2281 12.2293 9.03423 -4.92946 53.7721 -9.76211 -6.03224 91.399 12.4424 31.4924 -6.97751e-007 3.58896e-007 5.62021e-006 9.95724 4.78208 -0.977887 -5.22453e-006 6.41446e-007 -3.00521 8.02898 -4.95148 0.697688 -74.5387 -8.47581 5.56901 -88.9035 23.4451 -32.2841 6.85624e-006 2.42813e-007 -2.23123e-006 -11.2498 4.61346 -0.224224 7.40546e-006 3.06376e-006 3 -8.02891 -4.95144 -0.69769 178.393 17.1974 -1.80333 180 -7.01537e-015 178.882 176.258 24.3955 -179.735 2.07163e-006 1.72054e-006 0.605805 -23.3066 71.4536 23.0804 8.13142 25.2329 -3.48557 179.214 12.9028 2.08143 4.54188e-006 -4.6773e-006 -1.2085 -1.90999 -24.6279 0.235729 6.4928e-006 -4.97459e-006 -0.801719 28.8304 75.5813 -29.4691 -8.13262 25.2406 3.48583 
53.2601 86.5888 7.9447 0.672245 1.00608 -0.753811 1.39345 -2.18716 1.11183 2.82387 -0.345826 2.09337 2.79942 1.29764 2.04653 -15.1225 6.92921 -1.23206 12.2316 9.04731 -4.93356 53.7663 -9.75433 -6.02677 91.4362 12.5076 31.4284 -6.97751e-007 3.58896e-007 5.62021e-006 9.98117 4.82439 -0.984002 -5.22453e-006 6.41446e-007 -3.00521 8.02898 -4.95148 0.697688 -74.5428 -8.47653 5.56941 -88.9078 23.4833 -32.2395 6.85624e-006 2.42813e-007 -2.23123e-006 -11.2744 4.65209 -0.216845 7.40546e-006 3.06376e-006 3 -8.02891 -4.95144 -0.69769 178.386 17.1993 -1.80072 180 7.01537e-015 178.882 176.261 24.3967 -179.736 2.07163e-006 1.72054e-006 0.605805 -23.3083 71.4551 23.0854 8.13142 25.2329 -3.48557 179.205 12.9054 2.08993 4.54188e-006 -4.6773e-006 -1.2085 -1.90884 -24.624 0.235986 6.4928e-006 -4.97459e-006 -0.801663 28.8236 75.5781 -29.4611 -8.13262 25.2406 3.48583 
53.2615 86.5834 7.94688 0.677854 1.00893 -0.749914 1.39356 -2.18721 1.11176 2.82313 -0.346109 2.09382 2.79867 1.29736 2.04699 -15.1397 6.88529 -1.23601 12.2341 9.06006 -4.9376 53.7607 -9.74666 -6.02138 91.474 12.573 31.3626 -6.97751e-007 3.58896e-007 5.62021e-006 10.006 4.86491 -0.989845 -5.22453e-006 6.41446e-007 -3.00521 8.02898 -4.95148 0.697688 -74.5465 -8.47725 5.56981 -88.9126 23.5212 -32.1942 6.85624e-006 2.42813e-007 -2.23123e-006 -11.2995 4.69112 -0.209364 7.40546e-006 3.06376e-006 3 -8.02891 -4.95144 -0.69769 178.378 17.2014 -1.79812 180 7.01537e-015 178.882 176.264 24.3982 -179.737 2.07163e-006 1.72054e-006 0.605805 -23.31 71.4568 23.0904 8.13142 25.2329 -3.48557 179.195 12.9079 2.09851 4.54188e-006 -4.6773e-006 -1.20851 -1.90764 -24.62 0.236259 6.4928e-006 -4.97459e-006 -0.801619 28.8169 75.575 -29.4532 -8.13262 25.2406 3.48583 
53.2654 86.5866 7.95096 0.683458 1.01191 -0.746098 1.39364 -2.18725 1.11175 2.82237 -0.346338 2.09435 2.79789 1.29713 2.04753 -15.1566 6.84156 -1.23992 12.2368 9.07237 -4.94155 53.7553 -9.73916 -6.01611 91.5125 12.6386 31.2941 -6.97751e-007 3.58896e-007 5.62021e-006 10.0322 4.90301 -0.995316 -5.22453e-006 6.41446e-007 -3.00521 8.02898 -4.95148 0.697688 -74.55 -8.47798 5.5702 -88.918 23.5586 -32.1476 6.85624e-006 2.42813e-007 -2.23123e-006 -11.3252 4.73067 -0.201741 7.40546e-006 3.06376e-006 3 -8.02891 -4.95144 -0.69769 178.371 17.2038 -1.79553 180 7.01537e-015 178.882 176.266 24.3998 -179.738 2.07163e-006 1.72054e-006 0.605805 -23.3117 71.4585 23.0954 8.13142 25.2329 -3.48557 179.186 12.9105 2.10718 4.54188e-006 -4.6773e-006 -1.20854 -1.90637 -24.616 0.236554 6.4928e-006 -4.97459e-006 -0.801593 28.8104 75.5719 -29.4455 -8.13262 25.2406 3.48583 
53.2675 86.5873 7.95383 0.689057 1.01504 -0.742385 1.39368 -2.18725 1.11184 2.82157 -0.346498 2.09498 2.79708 1.29697 2.04818 -15.1734 6.79807 -1.24379 12.2398 9.08411 -4.94537 53.7501 -9.73186 -6.01098 91.5519 12.7046 31.2222 -6.97751e-007 3.58896e-007 5.62021e-006 10.06 4.93799 -1.00031 -5.22453e-006 6.41446e-007 -3.00521 8.02898 -4.95148 0.697688 -74.553 -8.47872 5.5706 -88.9243 23.5955 -32.0997 6.85624e-006 2.42813e-007 -2.23123e-006 -11.3519 4.77091 -0.193939 7.40546e-006 3.06376e-006 3 -8.02891 -4.95144 -0.69769 178.364 17.2065 -1.79294 180 7.01537e-015 178.882 176.269 24.4017 -179.739 2.07163e-006 1.72054e-006 0.605805 -23.3135 71.4604 23.1003 8.13142 25.2329 -3.48557 179.176 12.9131 2.11599 4.54188e-006 -4.6773e-006 -1.20859 -1.90501 -24.612 0.236877 6.4928e-006 -4.97459e-006 -0.801589 28.804 75.5689 -29.4379 -8.13262 25.2406 3.48583 
53.2691 86.5893 7.95923 0.69465 1.01836 -0.738799 1.39368 -2.18722 1.11203 2.82074 -0.346577 2.09574 2.79624 1.2969 2.04895 -15.19 6.75488 -1.24762 12.2432 9.09516 -4.94906 53.7452 -9.72481 -6.00603 91.5923 12.7709 31.1461 -6.97751e-007 3.58896e-007 5.62021e-006 10.0897 4.96921 -1.00473 -5.22453e-006 6.41446e-007 -3.00521 8.02898 -4.95148 0.697688 -74.5554 -8.47947 5.57098 -88.9317 23.6316 -32.05 6.85624e-006 2.42813e-007 -2.23123e-006 -11.3795 4.81196 -0.185919 7.40546e-006 3.06376e-006 3 -8.02891 -4.95144 -0.69769 178.357 17.2095 -1.79038 180 7.01537e-015 178.882 176.271 24.404 -179.74 2.07163e-006 1.72054e-006 0.605805 -23.3154 71.4625 23.1051 8.13142 25.2329 -3.48557 179.166 12.9158 2.12496 4.54188e-006 -4.6773e-006 -1.20867 -1.90353 -24.6079 0.237235 6.4928e-006 -4.97459e-006 -0.801612 28.7977 75.566 -29.4306 -8.13262 25.2406 3.48583 
